<?xml version="1.0" standalone="no"?><!DOCTYPE svg PUBLIC "-//W3C//DTD SVG 1.1//EN" "http://www.w3.org/Graphics/SVG/1.1/DTD/svg11.dtd"><svg t="1532253376485" class="icon" style="" viewBox="0 0 1024 1024" version="1.1" xmlns="http://www.w3.org/2000/svg" p-id="5960" xmlns:xlink="http://www.w3.org/1999/xlink" width="200" height="200"><defs><style type="text/css"></style></defs><path d="M510.4 512m-448 0a448 448 0 1 0 896 0 448 448 0 1 0-896 0Z" fill="#F5A623" p-id="5961"></path><path d="M519.472 517.68l-27.664 12.912L509.296 568c2.944 7.904 9.2 3.888 9.2 3.888 29.984-13.216 32.832-17.6 32.832-17.6 15.408-14 6.912-28.96 6.912-28.96-9.536-22.064-38.768-7.648-38.768-7.648zM525.808 464c-8.992-19.2-33.792-6.4-33.792-6.4l-28.352 12.8 17.696 37.92 29.04-14.592c24.656-14 15.408-29.728 15.408-29.728z" fill="#FFFFFF" p-id="5962"></path><path d="M509.376 320.784a192 192 0 1 0 192 192.08 192.08 192.08 0 0 0-192-192.08z m82.832 277.248l-28.592 13.344-11.616-24.864-18.016 8.432 11.616 24.848-27.968 13.072-11.616-24.864-43.504 20.32-10.16-21.76 9.936-4.64s11.088-3.104 5.264-14.304l-42.272-90.56s-3.52-12.096-15.152-5.712l-9.456 4.656-10.16-21.76 43.504-20.304-11.616-24.928 27.984-13.008 11.6 24.864 18.016-8.48-11.616-24.864 28.592-13.344 12.8 27.344S547.36 408 563.2 438.704c0 0 14.48 24.528-14.4 50.144 0 0 42.784-14.96 56.864 25.6 0 0 10.992 30.592-26.224 56.304z" fill="#FFFFFF" p-id="5963"></path><path d="M273.392 511.488a237.024 237.024 0 0 1 101.776-194.816H195.2v388.256h178a237.056 237.056 0 0 1-99.808-193.44zM646.4 316.672a237.376 237.376 0 0 1 1.968 388.256H825.6V316.672z" fill="#FFFFFF" p-id="5964"></path></svg>