<?xml version="1.0" standalone="no"?><!DOCTYPE svg PUBLIC "-//W3C//DTD SVG 1.1//EN" "http://www.w3.org/Graphics/SVG/1.1/DTD/svg11.dtd"><svg t="1531838408015" class="icon" style="" viewBox="0 0 1024 1024" version="1.1" xmlns="http://www.w3.org/2000/svg" p-id="4483" xmlns:xlink="http://www.w3.org/1999/xlink" width="200" height="200"><defs><style type="text/css"></style></defs><path d="M1024 512c0 282.624-229.376 512-512 512S0 794.624 0 512 229.376 0 512 0 1024 229.376 1024 512" fill="#F7931A" p-id="4484"></path><path d="M636.416 661.504c-4.096 14.336-13.824 26.112-27.136 33.28-13.312 7.168-28.672 8.704-43.008 4.608l-144.384-43.008 32.256-108.032 144.384 43.008c29.696 9.216 46.592 40.448 37.888 70.144m48.64-220.672c7.168 13.312 8.704 28.672 4.608 43.008-8.704 29.696-40.448 46.592-70.144 37.888l-144.384-43.008 32.256-108.032 144.384 43.008c14.336 4.096 26.112 13.824 33.28 27.136m64.512-35.328c-16.384-30.208-44.032-52.736-76.8-62.464l-18.944-5.632 26.624-89.6-68.608-20.48-26.624 89.6-58.368-17.408L552.96 209.92l-16.384-5.12-66.56-19.968-25.6 86.528-80.896-23.552-23.04 76.8 80.896 24.064L337.92 628.224 257.024 604.16l-23.04 76.8 80.896 24.064-21.504 72.704 16.384 5.12 66.56 19.968 22.528-76.288 58.88 17.408-22.528 75.776 68.096 20.48 22.528-76.288 19.456 5.632c12.288 3.584 24.576 5.632 37.376 5.632 20.992 0 42.496-5.12 61.44-15.872 30.208-16.384 52.736-44.032 62.464-76.8 10.24-34.816 5.12-70.656-11.264-100.352 30.208-15.872 53.76-43.008 64.512-77.824 9.728-33.28 6.144-68.096-10.24-98.816" fill="#FFFFFF" p-id="4485"></path></svg>