<?xml version="1.0" standalone="no"?><!DOCTYPE svg PUBLIC "-//W3C//DTD SVG 1.1//EN" "http://www.w3.org/Graphics/SVG/1.1/DTD/svg11.dtd"><svg t="1532174259879" class="icon" style="" viewBox="0 0 1024 1024" version="1.1" xmlns="http://www.w3.org/2000/svg" p-id="4223" xmlns:xlink="http://www.w3.org/1999/xlink" width="200" height="200"><defs><style type="text/css"></style></defs><path d="M811.8272 775.4752l-80.896-444.928L580.096 761.856H428.8512L278.016 330.6496l-77.824 449.4336L503.808 979.8656l-0.4096 1.1264 1.024-0.7168 1.024 0.7168-0.4096-1.1264 306.7904-204.3904zM539.8528 932.4544l52.3264-152.4736h183.9104L539.8528 932.4544z m186.0608-541.9008L789.0944 761.856H598.4256l127.488-371.3024z m-444.928 0L408.4736 761.856H217.8048l63.1808-371.3024z m-50.176 389.5296H414.72l52.3264 152.4736-236.2368-152.4736z m204.3904 0h138.5472l-69.3248 198.0416L435.2 780.0832z" fill="#F88A2F" p-id="4224"></path><path d="M730.9312 330.6496L515.584 25.6l-242.688 307.4048-72.8064 447.0784 312.5248-434.8928 291.1232 430.2848-72.8064-444.8256z m-226.4064 0L224.768 714.1376 288.768 338.6368 504.5248 63.5904v267.0592z m19.5584-267.6736L714.752 338.7392l62.0544 361.2672-256.1024-369.3568 3.3792-267.6736z" fill="#F88A2F" p-id="4225"></path></svg>