<?xml version="1.0" standalone="no"?><!DOCTYPE svg PUBLIC "-//W3C//DTD SVG 1.1//EN" "http://www.w3.org/Graphics/SVG/1.1/DTD/svg11.dtd"><svg t="1532253538649" class="icon" style="" viewBox="0 0 1024 1024" version="1.1" xmlns="http://www.w3.org/2000/svg" p-id="6941" xmlns:xlink="http://www.w3.org/1999/xlink" width="200" height="200"><defs><style type="text/css"></style></defs><path d="M942.427421 234.839536a17.254917 17.254917 0 1 0-28.988261 18.715833 475.626037 475.626037 0 0 1 76.013661 258.559181c0 263.229511-214.145024 477.386038-477.386038 477.386038s-477.386038-214.156527-477.386038-477.386038 214.145024-477.386038 477.386038-477.386039a475.683553 475.683553 0 0 1 166.659492 29.908523 17.254917 17.254917 0 0 0 12.055436-32.335714 511.964892 511.964892 0 1 0 251.64571 202.538216z" fill="#f4ea2a" p-id="6942"></path><path d="M796.059711 128.365195a482.807533 482.807533 0 0 1 34.969965 28.562639 17.254917 17.254917 0 1 0 23.064073-25.663813c-11.963409-10.755565-24.571002-21.050999-37.47768-30.621726a17.256067 17.256067 0 1 0-20.556358 27.7229zM385.496215 534.22385L261.088263 751.647308l242.144003 144.12457-117.736051-361.548028zM257.614273 707.187138l117.402456-205.172466-42.32056-129.964036-75.081896 335.136502zM621.370931 503.65964l-108.671467-191.736638-110.385456 192.898469 110.523495 339.381212 108.533428-340.543043zM689.332298 373.074428l-40.721605 127.755406 116.447684 205.460049-75.726079-333.215455zM638.223233 533.407117L522.868361 895.35776l239.072628-143.664439L638.223233 533.407117zM673.423264 340.336099L525.514115 130.263235v153.361703l106.232773 187.457419 41.676376-130.746258zM500.413963 282.865722V129.29696L348.708732 340.175053l43.125789 132.448743 108.579442-189.758074z" fill="#f4ea2a" p-id="6943"></path></svg>