<?xml version="1.0" standalone="no"?><!DOCTYPE svg PUBLIC "-//W3C//DTD SVG 1.1//EN" "http://www.w3.org/Graphics/SVG/1.1/DTD/svg11.dtd"><svg t="1531838459362" class="icon" style="" viewBox="0 0 1024 1024" version="1.1" xmlns="http://www.w3.org/2000/svg" p-id="5312" xmlns:xlink="http://www.w3.org/1999/xlink" width="200" height="200"><defs><style type="text/css"></style></defs><path d="M512 0C229.376 0 0 229.376 0 512s229.376 512 512 512S1024 794.624 1024 512 794.624 0 512 0" fill="#3D3E3C" p-id="5313"></path><path d="M512 42.496c258.56 0 469.504 210.432 469.504 469.504 0 258.56-210.432 469.504-469.504 469.504S42.496 770.56 42.496 512s210.944-469.504 469.504-469.504" fill="#FFFFFF" p-id="5314"></path><path d="M834.56 321.536c-11.264-19.456-24.576-37.376-39.936-54.784L266.752 795.136c17.408 14.848 35.84 28.16 54.784 39.936L834.56 321.536zM751.616 224.256c-17.92-14.848-36.352-27.648-55.808-38.4l-509.952 509.952c10.752 19.456 24.064 38.4 38.4 55.808l527.36-527.36zM636.416 158.72c-25.088-8.704-50.688-14.848-76.8-17.92l-418.816 418.816c3.072 26.112 9.216 51.712 17.92 76.8L636.416 158.72zM474.624 139.264c-82.944 8.192-163.84 44.032-227.328 108.032s-99.328 144.384-108.032 227.328l335.36-335.36zM882.176 455.168c-4.096-25.6-10.24-50.688-19.456-75.264l-482.304 482.304c24.576 9.216 49.664 15.872 75.264 19.456l426.496-426.496zM885.248 537.6L537.6 885.248c87.04-6.144 172.544-41.984 239.104-108.544S879.616 624.64 885.248 537.6" fill="#B6B7BA" p-id="5315"></path><path d="M470.528 643.072l22.016-157.696 138.24-99.84v-95.232L507.392 378.88l25.088-182.272h-151.04l-32.768 296.448-96.256 69.12v95.744l84.992-60.928-18.432 166.4H814.08V643.072z" fill="#F8F9F7" p-id="5316"></path><path d="M332.288 751.616h470.528v-97.28h-345.6l24.576-175.616L619.52 379.904V312.32L492.032 403.968l27.136-195.584h-127.488l-31.744 290.816L264.192 568.32v67.072l87.552-62.976-19.456 179.2z m493.568 23.04H306.176l16.896-153.6L240.64 680.448V556.544l97.28-69.632 32.768-301.568h174.592L522.24 353.792l119.808-86.528v123.904L503.296 491.52l-19.456 139.776h342.016v143.36z" fill="#3D3E3C" p-id="5317"></path></svg>