<?xml version="1.0" standalone="no"?><!DOCTYPE svg PUBLIC "-//W3C//DTD SVG 1.1//EN" "http://www.w3.org/Graphics/SVG/1.1/DTD/svg11.dtd"><svg t="1531843736543" class="icon" style="" viewBox="0 0 1024 1024" version="1.1" xmlns="http://www.w3.org/2000/svg" p-id="2088" xmlns:xlink="http://www.w3.org/1999/xlink" width="200" height="200"><defs><style type="text/css"></style></defs><path d="M0 0v484h484V0H0z m428 428H56V56h372v372z" fill="#ffffff" p-id="2089"></path><path d="M112 112h260v260H112zM540 0v484h484V0H540z m428 428H596V56h372v372z" fill="#ffffff" p-id="2090"></path><path d="M652 112v260h260V112H652z m204 204H708V168h148v148zM0 540v484h484V540H0z m428 428H56V596h372v372z" fill="#ffffff" p-id="2091"></path><path d="M112 652v260h260V652H112z m204 204H168V708h148v148zM540 968h56v56h-56zM596 912h56v56h-56zM652 912h56v56h-56zM708 912h56v56h-56zM968 540h56v56h-56zM968 596h56v56h-56zM968 912h56v56h-56zM968 968h56v56h-56zM912 968h56v56h-56zM540 540h56v56h-56zM596 540h56v56h-56zM540 764h56v56h-56zM540 820h56v56h-56zM856 596h56v56h-56zM912 596h56v56h-56zM708 540h56v56h-56zM708 596h56v56h-56zM764 540h56v56h-56zM596 652h168v56H596zM596 708h56v56h-56zM820 708h56v56h-56zM876 764h56v56h-56zM652 800h56v56h-56zM652 856h56v56h-56zM820 912h56v56h-56zM876 652h56v56h-56zM708 708h56v56h-56zM764 652h56v56h-56zM968 800h56v56h-56zM540 596h56v56h-56zM856 856h56v56h-56z" fill="#ffffff" p-id="2092"></path><path d="M690.6 800H856v56H690.6zM764 968h56v56h-56zM764 856h97.7v56H764zM912 856h56v56h-56z" fill="#ffffff" p-id="2093"></path></svg>