<?xml version="1.0" standalone="no"?><!DOCTYPE svg PUBLIC "-//W3C//DTD SVG 1.1//EN" "http://www.w3.org/Graphics/SVG/1.1/DTD/svg11.dtd"><svg t="1532253467388" class="icon" style="" viewBox="0 0 1029 1024" version="1.1" xmlns="http://www.w3.org/2000/svg" p-id="6187" xmlns:xlink="http://www.w3.org/1999/xlink" width="200.9765625" height="200"><defs><style type="text/css"></style></defs><path d="M514.048 0C231.424 0 2.048 229.376 2.048 512s229.376 512 512 512 512-229.376 512-512S797.184 0 514.048 0" fill="#266BA6" p-id="6188"></path><path d="M514.048 980.992c-259.072 0-468.992-209.92-468.992-468.992s209.92-468.992 468.992-468.992S983.04 252.928 983.04 512s-209.92 468.992-468.992 468.992" fill="#FFFFFF" p-id="6189"></path><path d="M624.64 568.32c-7.168 0-13.824 0.512-20.48 1.536-19.968-17.408-35.84-38.4-34.304-62.976 1.024-18.944 10.24-34.816 23.04-48.128 9.216 2.048 18.944 3.072 28.672 3.072 76.288 0 137.728-61.952 137.728-137.728s-61.952-137.728-137.728-137.728c-76.288 0-137.728 61.952-137.728 137.728 0 35.328 13.312 67.584 35.328 92.16-3.072 18.432-9.728 34.304-22.528 43.008-13.824 9.216-40.96 10.24-70.656 8.192-19.968-51.2-70.144-87.552-128.512-87.552-76.288 0-137.728 61.952-137.728 137.728 0 76.288 61.952 137.728 137.728 137.728 62.464 0 115.712-41.984 132.096-99.328 24.064-3.584 46.08-3.584 57.344 5.632 14.848 11.776 22.016 36.352 25.6 64-15.872 22.528-25.6 50.176-25.6 79.872 0 76.288 61.952 137.728 137.728 137.728 76.288 0 137.728-61.952 137.728-137.728S700.928 568.32 624.64 568.32" fill="#2C71AE" p-id="6190"></path></svg>